<?xml version="1.0" encoding="UTF-8" ?>
<!DOCTYPE svg PUBLIC "-//W3C//DTD SVG 1.1//EN" "http://www.w3.org/Graphics/SVG/1.1/DTD/svg11.dtd">
<svg width="512pt" height="512pt" viewBox="0 0 512 512" version="1.1" xmlns="http://www.w3.org/2000/svg">
<path fill="#f8f8f8" fill-opacity="0.0" d=" M 0.00 0.00 L 512.00 0.00 L 512.00 512.00 L 0.00 512.00 L 0.00 461.58 C 0.38 473.71 5.07 485.72 13.34 494.65 C 23.68 506.19 39.52 512.54 54.97 511.30 C 69.25 510.29 82.94 502.94 91.63 491.56 C 98.07 483.46 101.75 473.29 102.27 462.97 C 103.22 447.84 96.86 432.48 85.58 422.37 C 74.76 412.32 59.43 407.65 44.83 409.53 C 28.84 411.30 14.11 421.31 6.44 435.43 C 2.39 442.71 0.23 450.99 0.00 459.31 L 0.00 307.68 C 0.18 324.83 14.90 340.02 31.95 341.03 C 52.95 341.91 74.23 342.77 94.56 348.57 C 108.07 352.28 120.82 359.23 130.61 369.34 C 140.81 379.10 149.74 390.33 155.93 403.07 C 164.74 420.71 168.64 440.36 170.34 459.88 C 171.05 467.16 170.90 474.50 171.66 481.78 C 173.13 494.28 181.62 506.19 193.84 510.07 C 207.10 514.50 222.34 508.37 230.02 496.98 C 234.02 491.13 236.16 484.03 235.88 476.94 C 235.05 445.01 233.37 412.51 223.08 382.00 C 212.09 348.61 189.07 319.38 159.31 300.71 C 134.54 285.38 105.47 278.98 76.81 276.08 C 62.59 274.50 48.29 273.88 34.01 273.03 C 25.68 272.47 17.26 275.54 11.07 281.10 C 4.20 287.09 0.31 296.11 0.00 305.16 L 0.00 170.76 C 0.19 179.92 4.16 188.94 10.90 195.16 C 17.07 201.11 25.45 204.43 33.96 204.97 C 70.29 206.38 106.79 210.25 141.81 220.41 C 174.50 229.86 205.78 245.79 230.59 269.34 C 256.47 293.35 274.93 324.57 286.33 357.82 C 299.50 396.14 304.57 436.72 306.50 477.04 C 306.79 484.58 309.38 492.03 314.06 497.98 C 321.82 508.19 335.50 513.53 348.11 510.83 C 363.28 508.02 375.53 493.61 374.91 478.03 C 373.15 429.09 367.79 379.64 351.57 333.17 C 341.19 303.20 325.69 274.98 305.75 250.30 C 294.63 236.81 282.34 224.33 269.47 212.53 C 241.88 187.30 208.53 168.67 173.01 157.21 C 131.71 143.80 88.21 138.98 45.01 136.96 C 37.01 136.81 28.61 135.58 21.01 138.83 C 8.73 143.58 0.25 156.14 0.00 169.24 L 0.00 34.59 C 0.24 42.00 3.03 49.40 8.26 54.72 C 14.64 61.31 23.91 64.54 32.99 64.42 C 82.90 62.74 132.73 72.02 179.93 87.86 C 216.15 100.22 251.07 116.70 282.93 137.98 C 308.34 154.95 331.65 175.27 350.91 199.06 C 381.86 237.24 404.73 281.51 421.19 327.69 C 436.92 372.73 446.93 420.13 447.12 467.97 C 447.23 474.40 446.41 480.95 447.96 487.29 C 449.90 496.33 455.95 504.54 464.39 508.50 C 477.73 514.87 494.93 510.61 504.06 499.06 C 509.13 492.96 511.73 484.96 511.42 477.05 C 509.79 428.33 504.66 379.54 492.92 332.16 C 483.28 293.05 468.91 255.00 449.07 219.90 C 434.37 193.87 416.77 169.49 396.77 147.28 C 375.84 124.75 353.65 103.19 328.58 85.29 C 284.19 52.71 232.75 30.40 179.27 17.76 C 132.05 6.34 83.46 1.57 34.97 0.05 C 27.10 -0.38 19.11 2.07 12.92 6.97 C 5.11 12.92 0.45 22.51 0.00 32.26 L 0.00 0.00 Z" />
<path fill="#c0c0c0" d=" M 12.92 6.97 C 19.11 2.07 27.10 -0.38 34.97 0.05 C 83.46 1.57 132.05 6.34 179.27 17.76 C 232.75 30.40 284.19 52.71 328.58 85.29 C 353.65 103.19 375.84 124.75 396.77 147.28 C 416.77 169.49 434.37 193.87 449.07 219.90 C 468.91 255.00 483.28 293.05 492.92 332.16 C 504.66 379.54 509.79 428.33 511.42 477.05 C 511.73 484.96 509.13 492.96 504.06 499.06 C 494.93 510.61 477.73 514.87 464.39 508.50 C 455.95 504.54 449.90 496.33 447.96 487.29 C 446.41 480.95 447.23 474.40 447.12 467.97 C 446.93 420.13 436.92 372.73 421.19 327.69 C 404.73 281.51 381.86 237.24 350.91 199.06 C 331.65 175.27 308.34 154.95 282.93 137.98 C 251.07 116.70 216.15 100.22 179.93 87.86 C 132.73 72.02 82.90 62.74 32.99 64.42 C 23.91 64.54 14.64 61.31 8.26 54.72 C 3.03 49.40 0.24 42.00 0.00 34.59 L 0.00 32.26 C 0.45 22.51 5.11 12.92 12.92 6.97 Z" />
<path fill="#c0c0c0" d=" M 21.01 138.83 C 28.61 135.58 37.01 136.81 45.01 136.96 C 88.21 138.98 131.71 143.80 173.01 157.21 C 208.53 168.67 241.88 187.30 269.47 212.53 C 282.34 224.33 294.63 236.81 305.75 250.30 C 325.69 274.98 341.19 303.20 351.57 333.17 C 367.79 379.64 373.15 429.09 374.91 478.03 C 375.53 493.61 363.28 508.02 348.11 510.83 C 335.50 513.53 321.82 508.19 314.06 497.98 C 309.38 492.03 306.79 484.58 306.50 477.04 C 304.57 436.72 299.50 396.14 286.33 357.82 C 274.93 324.57 256.47 293.35 230.59 269.34 C 205.78 245.79 174.50 229.86 141.81 220.41 C 106.79 210.25 70.29 206.38 33.96 204.97 C 25.45 204.43 17.07 201.11 10.90 195.16 C 4.16 188.94 0.19 179.92 0.00 170.76 L 0.00 169.24 C 0.25 156.14 8.73 143.58 21.01 138.83 Z" />
<path fill="#040404" d=" M 11.07 281.10 C 17.26 275.54 25.68 272.47 34.01 273.03 C 48.29 273.88 62.59 274.50 76.81 276.08 C 105.47 278.98 134.54 285.38 159.31 300.71 C 189.07 319.38 212.09 348.61 223.08 382.00 C 233.37 412.51 235.05 445.01 235.88 476.94 C 236.16 484.03 234.02 491.13 230.02 496.98 C 222.34 508.37 207.10 514.50 193.84 510.07 C 181.62 506.19 173.13 494.28 171.66 481.78 C 170.90 474.50 171.05 467.16 170.34 459.88 C 168.64 440.36 164.74 420.71 155.93 403.07 C 149.74 390.33 140.81 379.10 130.61 369.34 C 120.82 359.23 108.07 352.28 94.56 348.57 C 74.23 342.77 52.95 341.91 31.95 341.03 C 14.90 340.02 0.18 324.83 0.00 307.68 L 0.00 305.16 C 0.31 296.11 4.20 287.09 11.07 281.10 Z" />
<path fill="#040404" d=" M 6.44 435.43 C 14.11 421.31 28.84 411.30 44.83 409.53 C 59.43 407.65 74.76 412.32 85.58 422.37 C 96.86 432.48 103.22 447.84 102.27 462.97 C 101.75 473.29 98.07 483.46 91.63 491.56 C 82.94 502.94 69.25 510.29 54.97 511.30 C 39.52 512.54 23.68 506.19 13.34 494.65 C 5.07 485.72 0.38 473.71 0.00 461.58 L 0.00 459.31 C 0.23 450.99 2.39 442.71 6.44 435.43 Z" />
</svg>
